<svg width="19" height="19" viewBox="0 0 19 19" fill="none" xmlns="http://www.w3.org/2000/svg">
<g clip-path="url(#clip0_356_696)">
<path d="M15.833 1.58325H3.16634C2.29551 1.58325 1.58301 2.29575 1.58301 3.16659V17.4166L4.74967 14.2499H15.833C16.7038 14.2499 17.4163 13.5374 17.4163 12.6666V3.16659C17.4163 2.29575 16.7038 1.58325 15.833 1.58325ZM10.2913 11.0833H8.70801V9.49992H10.2913V11.0833ZM9.49967 7.91658C9.06426 7.91658 8.70801 7.56034 8.70801 7.12492V5.54158C8.70801 5.10617 9.06426 4.74992 9.49967 4.74992C9.93509 4.74992 10.2913 5.10617 10.2913 5.54158V7.12492C10.2913 7.56034 9.93509 7.91658 9.49967 7.91658Z" fill="currentColor"/>
</g>
<defs>
<clipPath id="clip0_356_696">
<rect width="19" height="19" fill="white"/>
</clipPath>
</defs>
</svg>
