<svg width="19" height="19" viewBox="0 0 19 19" fill="none" xmlns="http://www.w3.org/2000/svg">
<path d="M9.025 0.807431C5.24083 1.05285 2.375 4.36993 2.375 8.16202V13.4583C2.375 14.7724 3.43583 15.8333 4.75 15.8333H5.54167C6.4125 15.8333 7.125 15.1208 7.125 14.2499V11.0833C7.125 10.2124 6.4125 9.49993 5.54167 9.49993H3.95833V8.14618C3.95833 5.10618 6.30167 2.46201 9.33375 2.37493C12.4767 2.28785 15.0417 4.79743 15.0417 7.9166V9.49993H13.4583C12.5875 9.49993 11.875 10.2124 11.875 11.0833V14.2499C11.875 15.1208 12.5875 15.8333 13.4583 15.8333H15.0417V16.6249H10.2917C9.85625 16.6249 9.5 16.9812 9.5 17.4166C9.5 17.852 9.85625 18.2083 10.2917 18.2083H14.25C15.5642 18.2083 16.625 17.1474 16.625 15.8333V7.9166C16.625 3.82368 13.1733 0.538265 9.025 0.807431Z" fill="currentColor"/>
</svg>
