<svg width="10" height="19" viewBox="0 0 10 19" fill="none" xmlns="http://www.w3.org/2000/svg">
<path d="M10 8.22897V0.976153C10 0.439269 9.55 0 9 0H1C0.45 0 0 0.439269 0 0.976153V8.22897C0 8.57063 0.18 8.89276 0.49 9.06846L4.67 11.5186L3.68 13.8028L1.46 13.9883C1 14.0273 0.82 14.5642 1.16 14.8473L2.85 16.2725L2.34 18.4005C2.24 18.8202 2.71 19.1521 3.09 18.9276L5 17.7953L6.91 18.9179C7.29 19.1424 7.76 18.8105 7.66 18.3907L7.15 16.2627L8.84 14.8375C9.17 14.5544 9 14.0176 8.55 13.9785L6.33 13.793L5.34 11.5088L9.52 9.0587C9.82 8.89276 10 8.58039 10 8.22897ZM6 9.98605L5 10.5717L4 9.98605V0.976153H6V9.98605Z" fill="currentColor"/>
</svg>
