<svg width="19" height="19" viewBox="0 0 19 19" fill="none" xmlns="http://www.w3.org/2000/svg">
<g clip-path="url(#clip0_356_697)">
<path d="M13.0628 3.46745C13.9373 3.46745 14.6462 2.75857 14.6462 1.88411C14.6462 1.00966 13.9373 0.300781 13.0628 0.300781C12.1884 0.300781 11.4795 1.00966 11.4795 1.88411C11.4795 2.75857 12.1884 3.46745 13.0628 3.46745Z" fill="currentColor"/>
<path d="M19.0002 8.61322V5.68405L15.0498 4.01364C14.2739 3.68906 13.3714 3.95822 12.9043 4.65489L12.1127 5.92156C11.5823 6.85572 10.6006 7.55239 9.41309 7.75822L9.46059 7.80572C10.0068 8.35197 10.6639 8.6528 11.4081 8.73197C12.0414 8.39947 12.6114 7.95614 13.0627 7.43364L13.5377 9.80864L12.6193 10.6795L11.8752 11.3841V11.9857V16.5299C11.8752 16.9653 12.2314 17.3216 12.6668 17.3216C13.1023 17.3216 13.4585 16.9653 13.4585 16.5299V12.5716L15.121 10.9882L16.4035 16.6803C16.4906 17.0524 16.8231 17.3216 17.211 17.3216C17.7335 17.3216 18.1214 16.8466 18.0185 16.3399L16.4827 8.61322L15.9918 6.15906L17.4168 6.71322V8.61322C17.4168 9.04864 17.7731 9.40489 18.2085 9.40489C18.6439 9.40489 19.0002 9.04864 19.0002 8.61322Z" fill="currentColor"/>
<path d="M8.14579 6.40454C8.31996 6.52329 8.51788 6.59454 8.71579 6.63413C8.81871 6.64996 8.91371 6.66579 9.01663 6.66579C9.11954 6.66579 9.22246 6.65788 9.31746 6.63413C9.42038 6.61829 9.51538 6.58663 9.61038 6.54704C9.80038 6.46788 9.98246 6.35704 10.1329 6.19871C10.5208 5.81079 10.6633 5.27246 10.5683 4.77371C10.5129 4.48079 10.3704 4.18788 10.1329 3.95829C9.98246 3.80788 9.80038 3.68913 9.61038 3.60996C9.51538 3.57038 9.42038 3.53871 9.31746 3.52288C9.21454 3.50704 9.11954 3.49121 9.01663 3.49121C8.92163 3.49121 8.83454 3.49913 8.73954 3.51496C8.62871 3.53079 8.51788 3.56246 8.41496 3.60204C8.23288 3.68913 8.05079 3.80788 7.90038 3.95829C7.66288 4.18788 7.52038 4.48079 7.46496 4.77371C7.36996 5.27246 7.51246 5.81079 7.90038 6.19871C7.97163 6.27788 8.05871 6.34121 8.14579 6.40454Z" fill="currentColor"/>
<path d="M8.89835 8.35988L7.31501 6.77655C7.23585 6.69738 7.15668 6.63405 7.0696 6.57072C6.89543 6.45988 6.69751 6.38072 6.4996 6.34905C6.39668 6.3253 6.30168 6.31738 6.19876 6.31738C5.79501 6.31738 5.39126 6.47572 5.08251 6.78447L2.43835 9.42863C2.11376 9.75322 1.94751 10.2045 1.97918 10.6478C1.97918 10.7903 2.01085 10.9407 2.06626 11.0832L2.91335 13.4186L0.60168 15.7303C0.29293 16.0391 0.29293 16.5378 0.60168 16.8466C0.91043 17.1553 1.40918 17.1553 1.71793 16.8466L4.52043 14.044V12.2866L5.54168 13.2603V16.5299C5.54168 16.9653 5.89793 17.3215 6.33335 17.3215C6.76876 17.3215 7.12501 16.9653 7.12501 16.5299V12.5715L5.44668 10.8932L7.31501 9.02488L7.8771 9.58697C8.6846 10.3786 9.6821 10.9249 10.8775 11.1228C11.3842 11.2099 11.8354 10.7665 11.7958 10.252C11.7721 9.87197 11.4792 9.56322 11.1071 9.5078C10.2125 9.3653 9.47626 8.9378 8.89835 8.35988Z" fill="currentColor"/>
</g>
<defs>
<clipPath id="clip0_356_697">
<rect width="19" height="19" fill="white"/>
</clipPath>
</defs>
</svg>
