<svg width="22" height="22" viewBox="0 0 22 22" fill="none" xmlns="http://www.w3.org/2000/svg">
<g clip-path="url(#clip0_264_347)">
<path d="M11 9.16667C9.99167 9.16667 9.16667 9.99167 9.16667 11C9.16667 12.0083 9.99167 12.8333 11 12.8333C12.0083 12.8333 12.8333 12.0083 12.8333 11C12.8333 9.99167 12.0083 9.16667 11 9.16667ZM17.4167 2.75H4.58333C3.56583 2.75 2.75 3.575 2.75 4.58333V17.4167C2.75 18.425 3.56583 19.25 4.58333 19.25H17.4167C18.4342 19.25 19.25 18.425 19.25 17.4167V4.58333C19.25 3.575 18.4342 2.75 17.4167 2.75ZM15.8125 11C15.8125 11.2108 15.7942 11.4217 15.7667 11.6233L17.1233 12.6867C17.2425 12.7875 17.2792 12.9617 17.1967 13.0992L15.9133 15.3175C15.8308 15.455 15.6658 15.51 15.5192 15.455L13.9242 14.8133C13.5942 15.07 13.2275 15.2808 12.8425 15.4458L12.6042 17.1417C12.5767 17.2975 12.4392 17.4167 12.2833 17.4167H9.71667C9.56083 17.4167 9.42333 17.2975 9.39583 17.1508L9.1575 15.455C8.76333 15.29 8.40583 15.0792 8.07583 14.8225L6.48083 15.4642C6.33417 15.5192 6.16917 15.4642 6.08667 15.3267L4.80333 13.1083C4.72083 12.9708 4.7575 12.7967 4.87667 12.6958L6.23333 11.6325C6.20583 11.4217 6.1875 11.2108 6.1875 11C6.1875 10.7892 6.20583 10.5783 6.23333 10.3767L4.87667 9.31333C4.7575 9.2125 4.72083 9.03833 4.80333 8.90083L6.08667 6.6825C6.16917 6.545 6.33417 6.49 6.48083 6.545L8.07583 7.18667C8.40583 6.93 8.7725 6.71917 9.1575 6.55417L9.39583 4.85833C9.42333 4.7025 9.56083 4.58333 9.71667 4.58333H12.2833C12.4392 4.58333 12.5767 4.7025 12.6042 4.84917L12.8425 6.545C13.2367 6.71 13.5942 6.92083 13.9242 7.1775L15.5192 6.53583C15.6658 6.48083 15.8308 6.53583 15.9133 6.67333L17.1967 8.89167C17.2792 9.02917 17.2425 9.20333 17.1233 9.30417L15.7667 10.3675C15.7942 10.5783 15.8125 10.7892 15.8125 11Z" fill="currentColor" fill-opacity="0.6"/>
</g>
<defs>
<clipPath id="clip0_264_347">
<rect width="22" height="22" fill="white"/>
</clipPath>
</defs>
</svg>
