<svg width="22" height="22" viewBox="0 0 22 22" fill="none" xmlns="http://www.w3.org/2000/svg">
<g clip-path="url(#clip0_356_691)">
<path d="M15.1247 10.9999C16.3897 10.9999 17.4072 9.97325 17.4072 8.70825C17.4072 7.44325 16.3897 6.41659 15.1247 6.41659C13.8597 6.41659 12.833 7.44325 12.833 8.70825C12.833 9.97325 13.8597 10.9999 15.1247 10.9999ZM8.24967 10.0833C9.77134 10.0833 10.9905 8.85492 10.9905 7.33325C10.9905 5.81159 9.77134 4.58325 8.24967 4.58325C6.72801 4.58325 5.49967 5.81159 5.49967 7.33325C5.49967 8.85492 6.72801 10.0833 8.24967 10.0833ZM15.1247 12.8333C13.4472 12.8333 10.083 13.6766 10.083 15.3541V16.4999C10.083 17.0041 10.4955 17.4166 10.9997 17.4166H19.2497C19.7538 17.4166 20.1663 17.0041 20.1663 16.4999V15.3541C20.1663 13.6766 16.8022 12.8333 15.1247 12.8333ZM8.24967 11.9166C6.11384 11.9166 1.83301 12.9891 1.83301 15.1249V16.4999C1.83301 17.0041 2.24551 17.4166 2.74967 17.4166H8.24967V15.3541C8.24967 14.5749 8.55217 13.2091 10.4222 12.1733C9.62467 12.0083 8.85467 11.9166 8.24967 11.9166Z" fill="currentColor"/>
</g>
<defs>
<clipPath id="clip0_356_691">
<rect width="22" height="22" fill="white"/>
</clipPath>
</defs>
</svg>
